# xmcd
#
# Track frame offsets:
#	150
#	15356
#	32445
#	50286
#	67611
#	80596
#	95259
#	115888
#	132384
#	152220
#	170779
#	185969
#	201359
#	216645
#	233286
#
# Disc length: 3317 seconds
#
# Revision: 2
# Processed by: cddbd v1.5.2PL0 Copyright (c) Steve Scherf et al.
# Submitted via: EasyCDDAExtractor 15.3.0.1
#
DISCID=c80cf30f
DTITLE=Pandora - 30 Exitos Insuperables - CD 2
DYEAR=2003
DGENRE=Latin
TTITLE0=Como Una Mariposa
TTITLE1=Ilegal
TTITLE2=Tarde O Temprano
TTITLE3=No Me Vuelvas A Buscar
TTITLE4=Cuando No Estas Conmigo
TTITLE5=Te Voy A Olvidar
TTITLE6=No Quiero Verte Mas
TTITLE7=Ya No Es Lo Mismo
TTITLE8=Con Tu Amor
TTITLE9=Todavia
TTITLE10=Para Escribir Tu Nombre
TTITLE11=Sea Mi Condena
TTITLE12=Atrapada
TTITLE13=Cinco Minutos De Amor
TTITLE14=Se Me Olvido Otra Vez
EXTD=
EXTT0=
EXTT1=
EXTT2=
EXTT3=
EXTT4=
EXTT5=
EXTT6=
EXTT7=
EXTT8=
EXTT9=
EXTT10=
EXTT11=
EXTT12=
EXTT13=
EXTT14=
PLAYORDER=
